:FULLY-SPECIFIED
:FORCE-ALL-JOINTS-BE-3DOF
:DEGREES
102
root -2.84506 16.5042 -36.1959 3.16311 0.21053 -2.21897
lfemur -21.2407 5.95183 -9.2268
ltibia 44.6094 0 0
lfoot -21.8038 -0.0783971 0
ltoes -7.66268 0 0
rfemur -21.7877 -5.85102 13.6958
rtibia 47.3295 0 0
rfoot -25.667 1.58667 0
rtoes -6.90796 0 0
lowerback 7.58571 1.95528 -1.69286
upperback -3.59414 2.53117 1.22707
thorax -8.1869 1.3655 1.87726
lowerneck -2.50949 -3.75807 -6.61413
upperneck 5.85209 -5.07893 5.94366
head 2.70399 -2.51632 2.96104
lclavicle 3.40741e-14 1.41887e-15 0
lhumerus -26.7603 -4.01474 89.7054
lradius 24.8845 0 0
lwrist -30.3577 0 0
lhand -28.8067 30.1839 0
lfingers 7.12502 0 0
lthumb -2.16507 60.1527 0
rclavicle 3.40741e-14 1.41887e-15 0
rhumerus -32.409 3.22771 -80.28
rradius 30.8515 0 0
rwrist 2.47449 0 0
rhand -20.2047 -27.6847 0
rfingers 7.12502 0 0
rthumb 6.14222 -57.5758 0
103
root -2.84411 16.5026 -36.1955 3.1766 0.214238 -2.22305
lfemur -21.2659 5.95908 -9.22588
ltibia 44.6352 0 0
lfoot -21.8184 -0.0792745 0
ltoes -7.66947 0 0
rfemur -21.805 -5.85939 13.6974
rtibia 47.3446 0 0
rfoot -25.6781 1.58593 0
rtoes -6.92208 0 0
lowerback 7.56139 1.95358 -1.69072
upperback -3.60056 2.52966 1.22759
thorax -8.17953 1.36473 1.87759
lowerneck -2.50467 -3.7575 -6.61332
upperneck 5.86087 -5.07866 5.94078
head 2.70588 -2.51633 2.95998
lclavicle 3.44008e-14 1.31407e-15 0
lhumerus -26.7639 -4.00163 89.6975
lradius 24.8836 0 0
lwrist -30.3598 0 0
lhand -28.8034 30.1852 0
lfingers 7.12502 0 0
lthumb -2.16187 60.154 0
rclavicle 3.44008e-14 1.31407e-15 0
rhumerus -32.4095 3.22515 -80.2783
rradius 30.8543 0 0
rwrist 2.47436 0 0
rhand -20.1991 -27.6836 0
rfingers 7.12502 0 0
rthumb 6.14755 -57.5746 0
104
root -2.84317 16.5011 -36.195 3.1868 0.216798 -2.22634
lfemur -21.2851 5.96436 -9.22498
ltibia 44.6552 0 0
lfoot -21.8296 -0.0791516 0
ltoes -7.67553 0 0
rfemur -21.8184 -5.86585 13.6989
rtibia 47.3562 0 0
rfoot -25.6866 1.5858 0
rtoes -6.93268 0 0
lowerback 7.54339 1.95238 -1.68918
upperback -3.60542 2.52861 1.22796
thorax -8.17418 1.3642 1.87783
lowerneck -2.50128 -3.75709 -6.61268
upperneck 5.86736 -5.07847 5.93868
head 2.70731 -2.51633 2.95921
lclavicle 3.46451e-14 1.22402e-15 0
lhumerus -26.7665 -3.99077 89.6908
lradius 24.8827 0 0
lwrist -30.3618 0 0
lhand -28.8006 30.1861 0
lfingers 7.12502 0 0
lthumb -2.15917 60.1549 0
rclavicle 3.46451e-14 1.22402e-15 0
rhumerus -32.4101 3.2226 -80.277
rradius 30.8562 0 0
rwrist 2.47453 0 0
rhand -20.1952 -27.6821 0
rfingers 7.12502 0 0
rthumb 6.15136 -57.573 0
105
root -2.84222 16.4995 -36.1945 3.19398 0.21826 -2.22895
lfemur -21.2989 5.9678 -9.22406
ltibia 44.6698 0 0
lfoot -21.8375 -0.0779617 0
ltoes -7.6811 0 0
rfemur -21.8282 -5.87058 13.7002
rtibia 47.3648 0 0
rfoot -25.6928 1.58629 0
rtoes -6.94004 0 0
lowerback 7.53124 1.95165 -1.6882
upperback -3.60883 2.528 1.22819
thorax -8.17072 1.36389 1.87799
lowerneck -2.49926 -3.75682 -6.61221
upperneck 5.87172 -5.07833 5.93731
head 2.70831 -2.51633 2.95869
lclavicle 3.48133e-14 1.14549e-15 0
lhumerus -26.7684 -3.98178 89.6852
lradius 24.882 0 0
lwrist -30.3638 0 0
lhand -28.7983 30.1866 0
lfingers 7.12502 0 0
lthumb -2.15689 60.1555 0
rclavicle 3.48133e-14 1.14549e-15 0
rhumerus -32.4107 3.21993 -80.2761
rradius 30.8574 0 0
rwrist 2.47504 0 0
rhand -20.1928 -27.6801 0
rfingers 7.12502 0 0
rthumb 6.15373 -57.5709 0
106
root -2.84128 16.498 -36.194 3.19839 0.218669 -2.23099
lfemur -21.3078 5.96952 -9.22308
ltibia 44.6797 0 0
lfoot -21.8426 -0.0756382 0
ltoes -7.68641 0 0
rfemur -21.8348 -5.87376 13.7015
rtibia 47.3707 0 0
rfoot -25.6969 1.58744 0
rtoes -6.94444 0 0
lowerback 7.52453 1.95136 -1.68774
upperback -3.61092 2.52781 1.22829
thorax -8.16905 1.3638 1.87807
lowerneck -2.49853 -3.75668 -6.61188
upperneck 5.8741 -5.07826 5.93663
head 2.70893 -2.51632 2.95841
lclavicle 3.49114e-14 1.07525e-15 0
lhumerus -26.7695 -3.9743 89.6805
lradius 24.8814 0 0
lwrist -30.3658 0 0
lhand -28.7962 30.1868 0
lfingers 7.12502 0 0
lthumb -2.15491 60.1557 0
rclavicle 3.49114e-14 1.07525e-15 0
rhumerus -32.4113 3.21704 -80.2756
rradius 30.8578 0 0
rwrist 2.47591 0 0
rhand -20.1917 -27.6774 0
rfingers 7.12502 0 0
rthumb 6.15473 -57.5683 0
107
root -2.84034 16.4964 -36.1935 3.20031 0.218074 -2.23256
lfemur -21.3123 5.96964 -9.222
ltibia 44.6854 0 0
lfoot -21.8451 -0.0721143 0
ltoes -7.69169 0 0
rfemur -21.8385 -5.87557 13.7026
rtibia 47.3741 0 0
rfoot -25.699 1.58929 0
rtoes -6.94614 0 0
lowerback 7.52281 1.9515 -1.68777
upperback -3.61182 2.52802 1.22827
thorax -8.16903 1.36392 1.87807
lowerneck -2.49902 -3.75667 -6.61167
upperneck 5.87466 -5.07825 5.93659
head 2.7092 -2.5163 2.95835
lclavicle 3.49456e-14 1.01008e-15 0
lhumerus -26.7699 -3.96798 89.6764
lradius 24.8808 0 0
lwrist -30.3679 0 0
lhand -28.7944 30.1867 0
lfingers 7.12502 0 0
lthumb -2.15316 60.1556 0
rclavicle 3.49456e-14 1.01008e-15 0
rhumerus -32.412 3.2138 -80.2755
rradius 30.8574 0 0
rwrist 2.47717 0 0
rhand -20.192 -27.6741 0
rfingers 7.12502 0 0
rthumb 6.15447 -57.5649 0
108
root -2.83939 16.4949 -36.193 3.2 0.216521 -2.23376
lfemur -21.3129 5.96828 -9.22078
ltibia 44.6875 0 0
lfoot -21.8453 -0.0673233 0
ltoes -7.69717 0 0
rfemur -21.8397 -5.87619 13.7038
rtibia 47.3754 0 0
rfoot -25.6995 1.59185 0
rtoes -6.94541 0 0
lowerback 7.52564 1.95203 -1.68825
upperback -3.61165 2.52861 1.22813
thorax -8.17054 1.36423 1.878
lowerneck -2.50067 -3.75677 -6.61157
upperneck 5.87356 -5.07829 5.93714
head 2.70916 -2.51627 2.95849
lclavicle 3.49221e-14 9.46758e-16 0
lhumerus -26.7698 -3.96245 89.6727
lradius 24.8802 0 0
lwrist -30.3702 0 0
lhand -28.7927 30.1862 0
lfingers 7.12502 0 0
lthumb -2.15154 60.1551 0
rclavicle 3.49221e-14 9.46758e-16 0
rhumerus -32.4127 3.21009 -80.2757
rradius 30.8564 0 0
rwrist 2.47885 0 0
rhand -20.1935 -27.67 0
rfingers 7.12502 0 0
rthumb 6.153 -57.5608 0
109
root -2.83845 16.4933 -36.1925 3.19773 0.214059 -2.23469
lfemur -21.3102 5.96558 -9.21939
ltibia 44.6865 0 0
lfoot -21.8436 -0.0611985 0
ltoes -7.70309 0 0
rfemur -21.8388 -5.8758 13.7051
rtibia 47.375 0 0
rfoot -25.6986 1.59517 0
rtoes -6.94253 0 0
lowerback 7.53258 1.95293 -1.68916
upperback -3.61055 2.52956 1.22788
thorax -8.17347 1.36473 1.87788
lowerneck -2.50341 -3.75698 -6.61155
upperneck 5.87095 -5.07837 5.93822
head 2.70885 -2.51624 2.95882
lclavicle 3.4847e-14 8.82057e-16 0
lhumerus -26.7691 -3.95735 89.6691
lradius 24.8797 0 0
lwrist -30.3728 0 0
lhand -28.7911 30.1855 0
lfingers 7.12502 0 0
lthumb -2.14996 60.1544 0
rclavicle 3.4847e-14 8.82057e-16 0
rhumerus -32.4136 3.20581 -80.2762
rradius 30.8547 0 0
rwrist 2.48098 0 0
rhand -20.1962 -27.6649 0
rfingers 7.12502 0 0
rthumb 6.15042 -57.5559 0
